<svg xmlns="http://www.w3.org/2000/svg" xmlns:xlink="http://www.w3.org/1999/xlink" width="100%" height="100%" version="1.1" viewBox="0 0 256 256" xml:space="preserve" style="fill-rule:evenodd;clip-rule:evenodd;stroke-linejoin:round;stroke-miterlimit:2"><g transform="matrix(0.413372,0,0,0.469741,64.564,40.5821)"><rect width="619.297" height="544.981" x="-156.189" y="-86.393" style="fill:#1b1e1f"/></g><g><g><path d="M390.877,136.653C389.457,134.193 386.831,132.677 383.99,132.677C381.149,132.677 378.524,134.193 377.103,136.653C373.093,143.599 368.146,152.168 364.604,158.303C361.749,163.248 361.749,169.34 364.604,174.285C368.142,180.414 373.084,188.972 377.092,195.915C378.515,198.379 381.144,199.898 383.99,199.898C386.836,199.898 389.466,198.379 390.889,195.915C394.897,188.972 399.838,180.414 403.377,174.284C406.232,169.34 406.232,163.248 403.377,158.303C399.835,152.168 394.888,143.599 390.877,136.653Z" transform="matrix(0.898356,0,0,0.898356,-130.722,-120.968) matrix(0.5,0.866025,-0.866025,0.5,288,-166.277)" style="fill:#fff"/></g><g><path d="M390.877,136.653C389.457,134.193 386.831,132.677 383.99,132.677C381.149,132.677 378.524,134.193 377.103,136.653C373.093,143.599 368.146,152.168 364.604,158.303C361.749,163.248 361.749,169.34 364.604,174.285C368.142,180.414 373.084,188.972 377.092,195.915C378.515,198.379 381.144,199.898 383.99,199.898C386.836,199.898 389.466,198.379 390.889,195.915C394.897,188.972 399.838,180.414 403.377,174.284C406.232,169.34 406.232,163.248 403.377,158.303C399.835,152.168 394.888,143.599 390.877,136.653Z" transform="matrix(0.898356,0,0,0.898356,-130.722,-120.968) matrix(1,0,0,1,-96,166.277)" style="fill:#fff"/></g><g><path d="M390.877,136.653C389.457,134.193 386.831,132.677 383.99,132.677C381.149,132.677 378.524,134.193 377.103,136.653C373.093,143.599 368.146,152.168 364.604,158.303C361.749,163.248 361.749,169.34 364.604,174.285C368.142,180.414 373.084,188.972 377.092,195.915C378.515,198.379 381.144,199.898 383.99,199.898C386.836,199.898 389.466,198.379 390.889,195.915C394.897,188.972 399.838,180.414 403.377,174.284C406.232,169.34 406.232,163.248 403.377,158.303C399.835,152.168 394.888,143.599 390.877,136.653Z" transform="matrix(0.898356,0,0,0.898356,-130.722,-120.968) matrix(0.5,-0.866025,0.866025,0.5,-96,498.831)" style="fill:#fff"/></g><g><path d="M390.877,136.653C389.457,134.193 386.831,132.677 383.99,132.677C381.149,132.677 378.524,134.193 377.103,136.653C373.093,143.599 368.146,152.168 364.604,158.303C361.749,163.248 361.749,169.34 364.604,174.285C368.142,180.414 373.084,188.972 377.092,195.915C378.515,198.379 381.144,199.898 383.99,199.898C386.836,199.898 389.466,198.379 390.889,195.915C394.897,188.972 399.838,180.414 403.377,174.284C406.232,169.34 406.232,163.248 403.377,158.303C399.835,152.168 394.888,143.599 390.877,136.653ZM385.681,139.653C385.332,139.049 384.688,138.677 383.99,138.677C383.293,138.677 382.648,139.049 382.299,139.653C378.289,146.599 373.342,155.168 369.8,161.303C368.017,164.391 368.017,168.196 369.8,171.285C373.339,177.414 378.28,185.972 382.288,192.915C382.639,193.523 383.288,193.898 383.99,193.898C384.692,193.898 385.341,193.523 385.692,192.915C389.701,185.972 394.642,177.414 398.181,171.284C399.964,168.196 399.964,164.391 398.181,161.303L385.681,139.653Z" transform="matrix(0.898356,0,0,0.898356,-130.722,-120.968) matrix(1,0,0,1,-95.9902,55.4086)" style="fill:#96d04a"/></g><g><path d="M390.877,136.653C389.457,134.193 386.831,132.677 383.99,132.677C381.149,132.677 378.524,134.193 377.103,136.653C373.093,143.599 368.146,152.168 364.604,158.303C361.749,163.248 361.749,169.34 364.604,174.285C368.142,180.414 373.084,188.972 377.092,195.915C378.515,198.379 381.144,199.898 383.99,199.898C386.836,199.898 389.466,198.379 390.889,195.915C394.897,188.972 399.838,180.414 403.377,174.284C406.232,169.34 406.232,163.248 403.377,158.303C399.835,152.168 394.888,143.599 390.877,136.653ZM385.681,139.653C385.332,139.049 384.688,138.677 383.99,138.677C383.293,138.677 382.648,139.049 382.299,139.653C378.289,146.599 373.342,155.168 369.8,161.303C368.017,164.391 368.017,168.196 369.8,171.285C373.339,177.414 378.28,185.972 382.288,192.915C382.639,193.523 383.288,193.898 383.99,193.898C384.692,193.898 385.341,193.523 385.692,192.915C389.701,185.972 394.642,177.414 398.181,171.284C399.964,168.196 399.964,164.391 398.181,161.303L385.681,139.653Z" transform="matrix(0.898356,0,0,0.898356,-130.722,-120.968) matrix(0.5,-0.866025,0.866025,0.5,-2.64322e-11,554.256)" style="fill:#96d04a"/></g><g><path d="M390.877,136.653C389.457,134.193 386.831,132.677 383.99,132.677C381.149,132.677 378.524,134.193 377.103,136.653C373.093,143.599 368.146,152.168 364.604,158.303C361.749,163.248 361.749,169.34 364.604,174.285C368.142,180.414 373.084,188.972 377.092,195.915C378.515,198.379 381.144,199.898 383.99,199.898C386.836,199.898 389.466,198.379 390.889,195.915C394.897,188.972 399.838,180.414 403.377,174.284C406.232,169.34 406.232,163.248 403.377,158.303C399.835,152.168 394.888,143.599 390.877,136.653ZM385.681,139.653C385.332,139.049 384.688,138.677 383.99,138.677C383.293,138.677 382.648,139.049 382.299,139.653C378.289,146.599 373.342,155.168 369.8,161.303C368.017,164.391 368.017,168.196 369.8,171.285C373.339,177.414 378.28,185.972 382.288,192.915C382.639,193.523 383.288,193.898 383.99,193.898C384.692,193.898 385.341,193.523 385.692,192.915C389.701,185.972 394.642,177.414 398.181,171.284C399.964,168.196 399.964,164.391 398.181,161.303L385.681,139.653Z" transform="matrix(0.898356,0,0,0.898356,-130.722,-120.968) matrix(0.5,0.866025,-0.866025,0.5,192,-110.851)" style="fill:#96d04a"/></g></g></svg>